<?xml version="1.0" encoding="utf-8"?>
<!-- Generator: Adobe Illustrator 12.0.0, SVG Export Plug-In  -->
<!DOCTYPE svg PUBLIC "-//W3C//DTD SVG 1.1//EN" "http://www.w3.org/Graphics/SVG/1.1/DTD/svg11.dtd" [
	<!ENTITY ns_flows "http://ns.adobe.com/Flows/1.0/">
	<!ENTITY ns_svg "http://www.w3.org/2000/svg">
	<!ENTITY ns_xlink "http://www.w3.org/1999/xlink">
]>
<svg  version="1.1" xmlns="&ns_svg;" xmlns:xlink="&ns_xlink;" xmlns:a="http://ns.adobe.com/AdobeSVGViewerExtensions/3.0/"
	 width="151" height="31" enable-background="new -0.717 -0.321 151 31" xml:space="preserve">
<defs>
</defs>
<path fill="#FFFFFF" d="M145.854,20.697c-1.909,0.216-3.633-1.16-3.848-3.07c-0.02-0.172-0.025-0.344-0.021-0.519
	c0-2.049,1.084-3.77,3.626-3.77c1.309,0.013,2.6,0.32,3.771,0.899v-2.679c-1.224-0.518-2.538-0.784-3.867-0.783
	c-3.335-0.143-6.153,2.445-6.297,5.78c-0.008,0.182-0.007,0.362,0.002,0.544c0,3.616,2.707,6.053,6.586,6.053
	c1.327-0.01,2.64-0.276,3.867-0.782v-2.611C148.476,20.327,147.177,20.646,145.854,20.697z"/>
<path fill="#FFFFFF" d="M108.472,10.785c-1.528-0.031-2.976,0.692-3.867,1.934c-0.928-1.236-2.391-1.955-3.937-1.934
	c-2.867-0.052-5.234,2.229-5.287,5.097c-0.002,0.13,0,0.258,0.008,0.387v6.769h2.823v-7.049c-0.123-1.325,0.85-2.498,2.175-2.621
	c0.093-0.009,0.188-0.012,0.281-0.01c1.367-0.045,2.511,1.025,2.557,2.392c0.003,0.079,0.002,0.159-0.004,0.239v7.077h2.776v-7.077
	c-0.113-1.336,0.878-2.51,2.213-2.623c0.091-0.008,0.182-0.01,0.271-0.008c1.383-0.044,2.539,1.041,2.583,2.422
	c0.003,0.07,0.002,0.14-0.002,0.209v7.077h2.795v-6.769c0.123-2.918-2.142-5.384-5.061-5.508
	C108.689,10.785,108.581,10.784,108.472,10.785z"/>
<path fill="#FFFFFF" d="M54.236,10.785c-3.313-0.129-6.105,2.452-6.234,5.767c-0.006,0.138-0.006,0.276-0.002,0.412
	c-0.21,3.198,2.211,5.96,5.409,6.17c0.189,0.013,0.378,0.016,0.566,0.009c1.49,0.048,2.875-0.765,3.559-2.089v2.012h2.814v-6.102
	C60.348,13.232,57.988,10.785,54.236,10.785z M54.236,20.658c-2.069,0-3.365-1.412-3.365-3.694
	c-0.146-1.912,1.286-3.579,3.198-3.724c0.046-0.003,0.091-0.006,0.138-0.008c2.04,0,3.298,1.451,3.298,3.703
	c0.166,1.883-1.226,3.545-3.108,3.712c-0.063,0.006-0.126,0.009-0.189,0.012H54.236z"/>
<path fill="#FFFFFF" d="M136.33,13.357c-1.547,0-2.455,1.287-2.455,2.988v6.769h-2.824v-6.769c-0.16-2.863,2.03-5.315,4.895-5.475
	c0.128-0.008,0.257-0.01,0.385-0.008h1.025v2.563L136.33,13.357z"/>
<path fill="#FFFFFF" d="M122.56,10.776c-3.331-0.034-6.061,2.641-6.094,5.973c-0.001,0.079,0,0.156,0.003,0.235
	c0,3.867,2.774,6.158,6.584,6.158c1.524-0.007,3.035-0.275,4.469-0.792v-2.476c-1.38,0.565-2.845,0.892-4.332,0.967
	c-2.118,0-3.598-0.967-3.869-2.833h8.587c0.062-0.452,0.089-0.907,0.087-1.362c0.135-3.106-2.272-5.733-5.378-5.868
	C122.598,10.777,122.579,10.776,122.56,10.776z M119.379,15.746c0.303-1.709,1.935-2.848,3.643-2.545
	c1.3,0.23,2.315,1.247,2.546,2.545H119.379z"/>
<path fill="#FFFFFF" d="M69.621,10.776c-3.333-0.034-6.061,2.641-6.094,5.973c-0.001,0.079,0,0.156,0.002,0.235
	c0,3.867,2.774,6.158,6.584,6.158c1.524-0.007,3.035-0.275,4.468-0.792v-2.476c-1.378,0.565-2.844,0.892-4.332,0.967
	c-2.118,0-3.597-0.967-3.868-2.833h8.586c0.062-0.452,0.09-0.907,0.088-1.362c0.134-3.106-2.273-5.733-5.378-5.868
	C69.658,10.777,69.639,10.776,69.621,10.776z M66.439,15.746c0.303-1.709,1.935-2.848,3.644-2.545
	c1.298,0.23,2.314,1.247,2.545,2.545H66.439z"/>
<path fill="#FFFFFF" d="M27.482,15.837c-1.256,0.704-2.684,1.044-4.123,0.983c-4.013-0.168-7.271-3.42-7.445-7.432
	c-0.105-2.352,0.862-4.625,2.63-6.18c0.154-0.138,0.167-0.373,0.028-0.527c-0.031-0.035-0.068-0.063-0.111-0.085L15.11,0.919
	c-0.686-0.343-1.493-0.343-2.179,0L1.336,6.722C0.518,7.13,0.001,7.965,0,8.879V22.42c0,0.911,0.517,1.746,1.336,2.157l11.595,5.802
	c0.686,0.343,1.493,0.343,2.179,0l11.594-5.802c0.818-0.408,1.335-1.244,1.337-2.157v-6.258c0-0.206-0.167-0.374-0.374-0.374
	C27.603,15.788,27.539,15.806,27.482,15.837z"/>
<path fill="#FFFFFF" d="M32.875,5.081c0,2.053-1.665,3.717-3.717,3.717c-2.053,0-3.717-1.664-3.717-3.717
	c0-2.053,1.664-3.717,3.717-3.717C31.211,1.364,32.875,3.028,32.875,5.081"/>
<path fill="#FFFFFF" stroke="#A9A9A9" stroke-width="0.25" d="M31.401,9.099c-0.742,0.417-1.587,0.618-2.438,0.581
	c-2.374-0.098-4.3-2.021-4.404-4.395c-0.062-1.391,0.51-2.735,1.556-3.654c0.091-0.082,0.099-0.221,0.018-0.312
	c-0.019-0.021-0.041-0.038-0.066-0.05l-1.983-0.993c-0.405-0.203-0.882-0.203-1.288,0l-6.856,3.432
	c-0.485,0.241-0.79,0.735-0.791,1.276v8.007c0,0.54,0.305,1.032,0.791,1.277l6.856,3.431c0.406,0.203,0.883,0.203,1.288,0
	l6.857-3.431c0.484-0.242,0.79-0.736,0.792-1.277v-3.7c0-0.122-0.099-0.222-0.222-0.222C31.472,9.07,31.435,9.08,31.401,9.099z"/>
<path fill="#FFFFFF" d="M38.479,12.767v10.563h3.053v-10.65h3v-2.83h-3V8.797c0,0,0.234-2.013,1.722-2.217
	c1.486-0.205,1.774-0.175,1.774-0.175V3.546c0,0-6.549-0.905-6.549,6.303h-2.218v2.888L38.479,12.767z"/>
<path fill="#040000" d="M5.841,16.506l0.152,4.971l1.423,1.077l-0.164-5.419l1.629,0.773l-0.047-1.564l-1.625-0.648l-0.016-0.534
	c0,0,0.086-0.988,0.863-0.849c0.844,0.15,1.017,0.22,1.017,0.22l-0.049-1.604c0,0-3.325-1.188-3.222,2.204l-0.898-0.358l0.039,1.29
	L5.841,16.506z"/>
<polyline fill="#FFFFFF" points="79.627,5.656 79.627,23.375 82.924,23.375 82.924,19.799 84.05,18.673 87.686,23.422 91.61,23.422 
	86.199,16.363 91.124,10.858 87.291,10.858 82.971,15.597 82.971,5.634 79.58,5.634 "/>
</svg>
