<svg xmlns="http://www.w3.org/2000/svg" overflow="visible" viewBox="0 0 197.004 41.885">
  <defs/>
  <path fill="#FF0211" d="M37.761 21.552a10.667 10.667 0 01-5.665 1.35c-5.515-.23-9.99-4.698-10.229-10.211A10.667 10.667 0 0125.48 4.2a.512.512 0 00-.113-.841l-4.605-2.305a3.34 3.34 0 00-2.993 0L1.836 9.027A3.314 3.314 0 000 11.992v18.604c0 1.253.711 2.4 1.836 2.965l15.933 7.971a3.34 3.34 0 002.993 0l15.931-7.971a3.32 3.32 0 001.837-2.965V22a.514.514 0 00-.769-.448z"/>
  <path fill="#4DC9FF" d="M42.543 4.917L33.123.203A1.969 1.969 0 0031.7.078a2.078 2.078 0 00-.349.126l-2.618 1.311-6.803 3.403a1.956 1.956 0 00-1.084 1.71c0 .014-.003.029-.003.044v11.001c0 .743.42 1.42 1.087 1.755l9.42 4.715c.439.219.938.258 1.402.132.125-.033.25-.074.369-.132l2.618-1.312 6.802-3.403a1.953 1.953 0 001.084-1.71c0-.014.003-.029.003-.045V6.672a1.96 1.96 0 00-1.085-1.755z"/>
  <path fill="#FFF" d="M8.026 22.471l.208 6.829 1.955 1.479-.226-7.444 2.24 1.063-.066-2.148-2.234-.892-.021-.735s.118-1.356 1.185-1.165c1.16.207 1.397.302 1.397.302l-.068-2.204s-4.569-1.632-4.426 3.028l-1.233-.492.053 1.772 1.236.607z"/>
  <path fill="#222" d="M191.755 28.228a4.781 4.781 0 01-5.314-4.928c0-2.817 1.49-5.182 4.983-5.182 1.798.018 3.568.439 5.181 1.236v-3.681a13.61 13.61 0 00-5.313-1.076 8.304 8.304 0 00-8.65 8.688c0 4.97 3.719 8.317 9.048 8.317a14.236 14.236 0 005.314-1.076V26.94a13.466 13.466 0 01-5.249 1.288zM140.394 14.61a6.381 6.381 0 00-5.315 2.656 6.645 6.645 0 00-5.406-2.656 7.135 7.135 0 00-7.254 7.533v9.299h3.879v-9.684a3.307 3.307 0 013.375-3.614 3.398 3.398 0 013.507 3.613v9.724h3.813v-9.724a3.336 3.336 0 013.043-3.604c.124-.009.248-.014.372-.009a3.44 3.44 0 013.547 3.613v9.724h3.84V22.18a7.267 7.267 0 00-6.954-7.567c-.15-.003-.299-.005-.447-.003zM71.752 14.61a8.25 8.25 0 00-8.568 8.489 7.972 7.972 0 008.21 8.491 5.319 5.319 0 004.89-2.87v2.764h3.865V23.1c0-5.128-3.24-8.49-8.397-8.49zm0 13.566c-2.842 0-4.623-1.939-4.623-5.076a4.769 4.769 0 014.583-5.128c2.803 0 4.531 1.993 4.531 5.089a4.704 4.704 0 01-4.531 5.115h.04zM178.67 18.146c-2.126 0-3.375 1.765-3.375 4.104v9.3h-3.881v-9.3a7.136 7.136 0 017.256-7.533h1.407v3.522l-1.407-.093zM159.75 14.598a8.291 8.291 0 00-8.373 8.207c-.001.108 0 .214.006.322 0 5.314 3.811 8.463 9.046 8.463a18.427 18.427 0 006.138-1.09v-3.4a18.078 18.078 0 01-5.951 1.329c-2.91 0-4.942-1.329-5.316-3.894h11.799c.084-.62.123-1.245.12-1.873a7.73 7.73 0 00-7.389-8.061l-.08-.003zm-4.37 6.829a4.316 4.316 0 018.502 0h-8.502zM112.028 14.598a8.29 8.29 0 00-8.369 8.529c0 5.314 3.812 8.463 9.046 8.463a18.437 18.437 0 006.139-1.09v-3.4a18.084 18.084 0 01-5.952 1.329c-2.909 0-4.942-1.329-5.314-3.894h11.798c.083-.62.124-1.245.12-1.873a7.732 7.732 0 00-7.39-8.061l-.078-.003zm-4.371 6.829a4.317 4.317 0 018.502 0h-8.502zM52.351 17.333v14.513h4.194V17.212h4.123v-3.889h-4.123v-1.444s.323-2.766 2.367-3.047c2.042-.28 2.437-.24 2.437-.24V4.663s-8.998-1.244-8.998 8.66h-3.047v3.969l3.047.041zM84.792 7.045v24.347h4.531v-4.915l1.548-1.548 4.993 6.524h5.392l-7.434-9.7 6.765-7.561h-5.265l-5.937 6.51V7.013h-4.658"/>
</svg>
