<svg xmlns="http://www.w3.org/2000/svg" overflow="visible" viewBox="0 0 95.799 80.663">
  <defs/>
  <g fill="#CECECE">
    <path d="M77.299 7.863L65.624 2.022a2.442 2.442 0 00-1.763-.156 2.37 2.37 0 00-.432.156l-3.247 1.625-8.43 4.216a2.42 2.42 0 00-1.341 2.12c0 .017-.005.035-.005.053v13.636c0 .917.521 1.757 1.346 2.173l11.677 5.84a2.44 2.44 0 001.735.166c.156-.042.311-.092.458-.166l3.243-1.625 8.43-4.215c.206-.104.396-.234.559-.386.483-.439.77-1.063.786-1.734 0-.019.003-.035.003-.053V10.036a2.432 2.432 0 00-1.344-2.173zM73.863 31.916c0 .007.004.012.004.019V44.82a4.984 4.984 0 01-2.756 4.448L47.225 61.224a5.029 5.029 0 01.002 0l23.888-11.955a4.984 4.984 0 002.755-4.448V31.935c-.001-.006-.007-.011-.007-.019z"/>
    <path d="M71.111 49.269a4.986 4.986 0 002.756-4.448V31.935c0-.006-.004-.011-.004-.019a.736.736 0 00-.095-.34c-.013-.019-.022-.035-.036-.052a.83.83 0 00-.243-.24c-.003 0-.003-.002-.006-.003l-3.797 1.899-3.927 1.966a2.893 2.893 0 01-.555.199 2.964 2.964 0 01-2.103-.199l-14.126-7.068a2.947 2.947 0 01-1.627-2.63V8.952l.002-.065a2.953 2.953 0 01.949-2.101c.2-.183.429-.34.679-.465l4.908-2.456-.629-.313L47.223.53A5.032 5.032 0 0044.98 0c-.771 0-1.539.178-2.245.53L18.847 12.482a4.978 4.978 0 00-2.752 4.447V44.82a4.977 4.977 0 002.752 4.448l23.891 11.955a5.032 5.032 0 004.487 0l23.886-11.954zM30.942 30.973l3.347 1.336.102 3.222-3.356-1.593.336 11.159-2.93-2.213-.313-10.242-1.854-.91-.08-2.657 1.85.739c-.213-6.987 6.642-4.54 6.642-4.54l.1 3.303s-.357-.144-2.094-.455c-1.603-.284-1.777 1.75-1.777 1.75l.027 1.101z"/>
  </g>
  <path fill="#CECECE" d="M92.396 78.317a3.105 3.105 0 01-3.43-2.736c-.018-.152-.022-.308-.018-.461 0-1.826.965-3.36 3.231-3.36a7.742 7.742 0 013.359.802v-2.386a8.815 8.815 0 00-3.445-.7 5.387 5.387 0 00-5.61 5.635c0 3.224 2.412 5.396 5.868 5.396a9.295 9.295 0 003.446-.698v-2.327a8.72 8.72 0 01-3.401.835zM59.083 69.484a4.139 4.139 0 00-3.446 1.724 4.316 4.316 0 00-3.509-1.724 4.627 4.627 0 00-4.705 4.887v6.032h2.517V74.12a2.146 2.146 0 012.189-2.344 2.204 2.204 0 012.274 2.344v6.31h2.473v-6.31a2.167 2.167 0 011.976-2.337c.081-.007.159-.008.24-.007a2.23 2.23 0 012.302 2.344v6.31h2.489v-6.033a4.714 4.714 0 00-4.8-4.913zM14.562 69.484a5.353 5.353 0 00-5.559 5.508 5.167 5.167 0 005.325 5.505 3.448 3.448 0 003.172-1.86v1.793h2.507v-5.438c0-3.327-2.102-5.508-5.445-5.508zm0 8.798c-1.845 0-2.998-1.258-2.998-3.29a3.093 3.093 0 012.85-3.32l.123-.007c1.818 0 2.938 1.292 2.938 3.302a3.054 3.054 0 01-2.94 3.317l.027-.002zM83.908 71.776c-1.379 0-2.188 1.146-2.188 2.663v6.031h-2.517v-6.031a4.626 4.626 0 014.361-4.878c.115-.009.229-.01.344-.009h.914v2.283l-.914-.059zM71.639 69.475a5.378 5.378 0 00-5.429 5.534c0 3.446 2.472 5.487 5.867 5.487a11.93 11.93 0 003.981-.705v-2.208a11.688 11.688 0 01-3.86.862c-1.889 0-3.206-.862-3.448-2.523h7.653c.055-.402.08-.811.078-1.217a5.017 5.017 0 00-4.793-5.228l-.049-.002zm-2.836 4.431a2.8 2.8 0 015.515 0h-5.515zM39.573 69.475a5.378 5.378 0 00-5.429 5.534c0 3.446 2.473 5.487 5.868 5.487a11.92 11.92 0 003.98-.705v-2.208a11.682 11.682 0 01-3.861.862c-1.886 0-3.204-.862-3.445-2.523h7.651c.056-.402.08-.811.078-1.217a5.014 5.014 0 00-4.792-5.228l-.05-.002zm-2.836 4.431a2.803 2.803 0 013.248-2.27 2.798 2.798 0 012.268 2.27h-5.516zM1.977 71.249v9.414h2.721v-9.491h2.674V68.65H4.697v-.937s.209-1.796 1.535-1.978c1.324-.181 1.581-.156 1.581-.156V63.03s-5.837-.806-5.837 5.618H0v2.574l1.977.027zM22.305 64.576v15.792h2.936v-3.187l1.004-1.003 3.24 4.231h3.497l-4.822-6.291 4.388-4.905h-3.416l-3.849 4.223v-8.88h-3.021"/>
</svg>
