<svg xmlns="http://www.w3.org/2000/svg" overflow="visible" viewBox="0 0 390.965 84.622">
  <defs/>
  <path fill="#FFF" d="M380.549 58.004c-5.209.587-9.904-3.162-10.49-8.371a9.787 9.787 0 01-.057-1.412c0-5.587 2.955-10.28 9.891-10.28a23.72 23.72 0 0110.281 2.453v-7.305a26.993 26.993 0 00-10.545-2.136c-9.094-.389-16.779 6.667-17.172 15.76-.02.494-.018.989.006 1.483 0 9.859 7.381 16.504 17.955 16.504a28.222 28.222 0 0010.547-2.133v-7.121a26.706 26.706 0 01-10.416 2.558zM278.618 31.218a12.662 12.662 0 00-10.546 5.272 13.186 13.186 0 00-10.732-5.272c-7.816-.144-14.271 6.078-14.415 13.896-.007.354 0 .702.021 1.053v18.456h7.699V45.402a6.563 6.563 0 016.7-7.172 6.751 6.751 0 016.961 7.171V64.7h7.566V45.401a6.617 6.617 0 016.775-7.172 6.825 6.825 0 017.039 7.17v19.299h7.621V46.242c.336-7.957-5.846-14.682-13.803-15.019a21.819 21.819 0 00-.886-.005zM145.129 30.997c-9.035-.354-16.647 6.686-17 15.723-.017.376-.018.752-.005 1.126-.573 8.718 6.028 16.25 14.748 16.821.515.032 1.029.043 1.545.024a10.552 10.552 0 009.704-5.692v5.481h7.673V47.844c.001-10.176-6.434-16.847-16.665-16.847zm0 26.921c-5.642 0-9.175-3.852-9.175-10.071a9.466 9.466 0 019.096-10.179c5.563 0 8.992 3.955 8.992 10.1.453 5.134-3.342 9.666-8.476 10.117a7.433 7.433 0 01-.517.033h.08zM354.58 38.097c-4.219 0-6.699 3.507-6.699 8.146V64.7h-7.697V46.243c-.438-7.806 5.535-14.489 13.346-14.928.351-.021.699-.027 1.054-.021h2.793v6.987l-2.797-.184zM317.033 30.979c-9.086-.092-16.525 7.2-16.617 16.287-.002.213 0 .426.008.639 0 10.547 7.564 16.796 17.953 16.796a36.528 36.528 0 0012.184-2.162v-6.75a35.877 35.877 0 01-11.813 2.638c-5.773 0-9.809-2.638-10.549-7.728h23.414c.166-1.229.246-2.474.238-3.717.364-8.468-6.197-15.63-14.664-15.999a3.808 3.808 0 00-.154-.004zm-8.674 13.551a8.564 8.564 0 019.934-6.938 8.563 8.563 0 016.939 6.938h-16.873zM220.257 30.979c-9.086-.092-16.524 7.2-16.616 16.287-.002.213 0 .426.006.639 0 10.547 7.565 16.796 17.955 16.796a36.525 36.525 0 0012.182-2.162v-6.75a35.877 35.877 0 01-11.813 2.638c-5.773 0-9.809-2.638-10.547-7.728h23.413c.166-1.229.246-2.474.238-3.717.368-8.468-6.196-15.63-14.664-15.999-.052-.002-.102-.004-.154-.004zm-8.675 13.551a8.568 8.568 0 019.936-6.938 8.562 8.562 0 016.938 6.938h-16.874zM106.625 35.897V64.7h8.324V35.659h8.183V27.94h-8.183v-2.864s.641-5.491 4.696-6.047c4.054-.558 4.837-.478 4.837-.478v-7.797s-17.857-2.466-17.857 17.186h-6.047v7.878l6.047.079zM168.428 16.259v48.316h8.99v-9.752l3.073-3.072L190.4 64.7h10.702l-14.754-19.25 13.425-15.006h-10.448l-11.78 12.918V16.197h-9.246"/>
  <path d="M15.927 46.094l.413 13.554 3.88 2.935-.447-14.773 4.442 2.108-.13-4.266-4.432-1.77-.044-1.455s.234-2.693 2.354-2.315c2.302.411 2.772.601 2.772.601l-.135-4.371s-9.067-3.239-8.786 6.009l-2.447-.978.105 3.517 2.455 1.204z"/>
  <g fill="#FFF">
    <path d="M80.484 13.885l-15.352-7.68a3.207 3.207 0 00-2.318-.206 3.003 3.003 0 00-.567.206l-4.27 2.137-11.085 5.543a3.183 3.183 0 00-1.763 2.788c0 .022-.006.046-.006.069v17.932c0 1.205.685 2.309 1.77 2.856l15.355 7.68a3.207 3.207 0 002.282.219 3.05 3.05 0 00.603-.219l4.264-2.137L80.48 37.53c.271-.137.52-.307.734-.507a3.18 3.18 0 001.034-2.28c0-.025.004-.046.004-.069V16.742a3.203 3.203 0 00-1.768-2.857zM75.966 45.514c0 .01.005.016.005.023v16.946a6.555 6.555 0 01-3.624 5.849L40.936 84.054a6.623 6.623 0 01.003 0l31.413-15.722a6.555 6.555 0 003.624-5.849V45.54c-.001-.008-.01-.014-.01-.026z"/>
    <path d="M72.348 68.333a6.555 6.555 0 003.624-5.849V45.54c0-.008-.005-.014-.005-.024a.964.964 0 00-.124-.447c-.017-.022-.031-.045-.048-.067a1.1 1.1 0 00-.319-.315c-.004 0-.004-.002-.008-.003l-4.993 2.498-5.164 2.584a3.87 3.87 0 01-.729.263 3.887 3.887 0 01-2.765-.263L43.24 40.467a3.875 3.875 0 01-2.139-3.458V15.317l.002-.086a3.88 3.88 0 011.248-2.763c.264-.24.564-.447.893-.611l6.455-3.229-.827-.412-7.938-3.975a6.613 6.613 0 00-2.948-.697 6.618 6.618 0 00-2.953.697L3.619 19.959A6.545 6.545 0 000 25.807v36.678a6.55 6.55 0 003.619 5.85l31.416 15.721a6.632 6.632 0 002.953.695 6.634 6.634 0 002.948-.695l31.412-15.723zM19.524 44.274l4.401 1.757.133 4.236-4.414-2.095.441 14.675-3.852-2.91-.412-13.468-2.439-1.197-.105-3.494 2.433.972c-.281-9.188 8.734-5.97 8.734-5.97l.131 4.343s-.47-.189-2.754-.599c-2.107-.374-2.337 2.301-2.337 2.301l.04 1.449z"/>
  </g>
</svg>
