<svg xmlns="http://www.w3.org/2000/svg" overflow="visible" viewBox="0 0 137.439 88.983">
  <defs/>
  <path fill="#FFF" d="M137.186.002zM137.375.201zM98.208 9.196z"/>
  <path fill="#CECECE" d="M137.352.166c.008.012.017.022.023.035-.007-.013-.016-.023-.023-.035zM137.183 0h-.001l.004.002z"/>
  <path fill="#FFF" d="M97.492 41.027z"/>
  <g fill="#CECECE">
    <path d="M77.299 16.183l-11.675-5.841a2.442 2.442 0 00-1.763-.156 2.37 2.37 0 00-.432.156l-3.247 1.625-8.429 4.216a2.42 2.42 0 00-1.341 2.12c0 .017-.005.035-.005.053v13.635c0 .917.52 1.757 1.346 2.173l11.676 5.84a2.437 2.437 0 001.736.166c.156-.042.31-.092.458-.166l3.243-1.625 8.43-4.215a2.44 2.44 0 001.344-2.12c0-.018.003-.035.003-.053V18.356a2.434 2.434 0 00-1.344-2.173zM73.863 40.236c0 .006.004.011.004.018V53.14a4.984 4.984 0 01-2.756 4.448L47.224 69.543a5.027 5.027 0 01.002 0l23.888-11.955a4.983 4.983 0 002.755-4.448V40.254c0-.006-.006-.011-.006-.018z"/>
    <path d="M71.111 57.588a4.985 4.985 0 002.756-4.448V40.254c0-.006-.004-.011-.004-.018a.733.733 0 00-.095-.34c-.012-.019-.022-.035-.036-.052a.818.818 0 00-.243-.24c-.003 0-.003-.002-.006-.003L69.686 41.5l-3.926 1.966a2.85 2.85 0 01-.555.199c-.695.19-1.442.13-2.103-.199l-14.126-7.068a2.947 2.947 0 01-1.627-2.63V17.272l.002-.066a2.947 2.947 0 01.95-2.1c.2-.183.428-.34.678-.465l4.908-2.456-.628-.313-6.037-3.022a5.015 5.015 0 00-4.487 0L18.846 20.802a4.98 4.98 0 00-2.752 4.447V53.14a4.98 4.98 0 002.752 4.448l23.891 11.955a5.033 5.033 0 004.487 0l23.887-11.955zM30.942 39.292l3.347 1.336.101 3.222-3.356-1.593.336 11.159-2.93-2.213-.313-10.242-1.855-.91-.08-2.657 1.85.739c-.213-6.987 6.641-4.54 6.641-4.54l.1 3.303s-.357-.144-2.094-.455c-1.602-.284-1.777 1.75-1.777 1.75l.03 1.101z"/>
  </g>
  <path fill="#CECECE" d="M92.396 86.637a3.104 3.104 0 01-3.447-3.197c0-1.826.965-3.361 3.231-3.361a7.76 7.76 0 013.36.802v-2.386a8.816 8.816 0 00-3.446-.7 5.387 5.387 0 00-5.61 5.636c0 3.224 2.412 5.396 5.868 5.396a9.285 9.285 0 003.447-.698v-2.327a8.755 8.755 0 01-3.403.835zM59.083 77.804a4.14 4.14 0 00-3.447 1.724 4.311 4.311 0 00-3.508-1.724 4.627 4.627 0 00-4.705 4.887v6.032h2.516V82.44a2.146 2.146 0 012.189-2.344 2.204 2.204 0 012.274 2.344v6.309h2.473V82.44a2.166 2.166 0 012.216-2.344 2.23 2.23 0 012.301 2.344v6.309h2.49v-6.033a4.714 4.714 0 00-4.799-4.912zM14.561 77.804a5.351 5.351 0 00-5.558 5.508 5.168 5.168 0 005.325 5.505 3.448 3.448 0 003.172-1.861v1.793h2.507v-5.437c0-3.327-2.102-5.508-5.446-5.508zm0 8.798c-1.844 0-2.998-1.258-2.998-3.29a3.094 3.094 0 012.85-3.321l.123-.006c1.818 0 2.938 1.292 2.938 3.301a3.052 3.052 0 01-2.939 3.317h.026zM83.908 80.096c-1.379 0-2.189 1.146-2.189 2.663v6.031h-2.516v-6.031a4.625 4.625 0 014.361-4.878c.115-.009.229-.01.344-.009h.914v2.284l-.914-.06zM71.638 77.794a5.377 5.377 0 00-5.43 5.324c-.002.071 0 .14.002.21 0 3.447 2.471 5.488 5.867 5.488a11.93 11.93 0 003.981-.705v-2.208a11.713 11.713 0 01-3.86.862c-1.889 0-3.206-.862-3.448-2.524h7.653c.055-.402.08-.81.078-1.216a5.017 5.017 0 00-4.793-5.228l-.05-.003zm-2.836 4.432a2.802 2.802 0 015.515 0h-5.515zM39.573 77.794a5.378 5.378 0 00-5.429 5.534c0 3.447 2.473 5.488 5.868 5.488a11.922 11.922 0 003.981-.705v-2.208a11.707 11.707 0 01-3.861.862c-1.886 0-3.205-.862-3.446-2.524h7.652c.055-.402.08-.81.078-1.216a5.014 5.014 0 00-4.792-5.228l-.051-.003zm-2.836 4.432a2.8 2.8 0 015.516 0h-5.516zM1.976 79.569v9.414h2.721v-9.492h2.674V76.97H4.697v-.937s.209-1.795 1.535-1.977c1.324-.181 1.581-.156 1.581-.156v-2.549s-5.837-.806-5.837 5.618H0v2.574l1.976.026zM22.304 72.896v15.792h2.937V85.5l1.004-1.003 3.24 4.232h3.497l-4.822-6.291 4.388-4.906h-3.416l-3.849 4.223v-8.88h-3.022"/>
</svg>
