<svg xmlns="http://www.w3.org/2000/svg" overflow="visible" viewBox="0 0 50.453 50.357">
  <defs/>
  <path fill="#FFF" d="M50.453 8.516C50.453 3.813 46.632 0 41.92 0H8.532C3.819 0 0 3.813 0 8.516v33.325c0 4.703 3.819 8.517 8.532 8.517H41.92c4.712 0 8.532-3.813 8.532-8.517V8.516z"/>
  <path fill="#FF0211" d="M40.43 25.927a8.804 8.804 0 01-4.682 1.117c-4.557-.191-8.258-3.883-8.455-8.439a8.817 8.817 0 012.988-7.017.425.425 0 00-.096-.695L26.38 8.988a2.768 2.768 0 00-2.474 0L10.74 15.576a2.743 2.743 0 00-1.517 2.452v15.373a2.74 2.74 0 001.517 2.449l13.167 6.59a2.768 2.768 0 002.474 0l13.166-6.59a2.736 2.736 0 001.518-2.449v-7.104a.425.425 0 00-.635-.37z"/>
  <path fill="#4DC9FF" d="M44.383 12.073l-7.785-3.896a1.654 1.654 0 00-.65-.163c-.027-.001-.055-.01-.082-.01-.25 0-.502.058-.73.172l-7.785 3.896a1.612 1.612 0 00-.889 1.358c-.002.031-.012.06-.012.092v9.093c0 .611.348 1.172.898 1.449l5.533 2.768s0 .002.002.002l2.252 1.125c.229.115.48.174.73.174.027 0 .055-.008.082-.01.223-.012.445-.061.65-.164l2.596-1.299 5.189-2.596a1.58 1.58 0 00.434-.332c.275-.283.441-.656.457-1.061 0-.02.008-.037.008-.057v-9.093a1.622 1.622 0 00-.898-1.448z"/>
  <path fill="#FFF" d="M15.856 26.581l.172 5.645 1.616 1.221-.187-6.15 1.851.877-.055-1.776-1.846-.737-.018-.605s.098-1.123.98-.965c.958.172 1.154.25 1.154.25l-.057-1.82s-3.776-1.35-3.659 2.502l-1.019-.406.043 1.465 1.025.499z"/>
</svg>
